<?xml version="1.0" standalone="no"?>
<!DOCTYPE svg PUBLIC "-//W3C//DTD SVG 20010904//EN"
 "http://www.w3.org/TR/2001/REC-SVG-20010904/DTD/svg10.dtd">
<svg version="1.0" xmlns="http://www.w3.org/2000/svg"
 width="64.000000pt" height="64.000000pt" viewBox="0 0 64.000000 64.000000"
 preserveAspectRatio="xMidYMid meet">

<g transform="translate(0.000000,64.000000) scale(0.100000,-0.100000)"
fill="#000000" stroke="none">
<path d="M152 511 c-12 -21 -22 -51 -22 -65 0 -15 -7 -40 -15 -55 -24 -47 -35
-112 -23 -135 14 -29 59 -76 72 -76 5 0 -4 15 -20 33 -54 58 -54 59 -40 113
20 76 31 90 80 104 27 7 43 17 40 24 -3 7 7 18 21 24 14 7 23 16 20 22 -3 5 8
16 25 25 27 14 33 14 60 0 17 -9 28 -20 25 -25 -3 -6 5 -15 20 -22 14 -6 24
-16 22 -22 -2 -6 17 -18 42 -27 40 -14 48 -21 62 -60 34 -92 34 -92 -22 -153
-28 -31 -47 -56 -42 -56 12 0 78 69 91 96 12 23 1 88 -23 135 -8 15 -15 40
-15 54 0 14 -9 44 -20 65 -22 43 -50 52 -85 26 -17 -12 -24 -12 -49 1 -24 13
-35 13 -66 3 -28 -9 -42 -9 -58 -1 -37 20 -57 13 -80 -28z"/>
<path d="M223 363 c-3 -10 -12 -33 -20 -52 -12 -30 -11 -37 6 -65 l20 -30 9
25 c6 14 17 31 26 38 21 18 20 51 -3 79 -23 27 -30 27 -38 5z"/>
<path d="M378 355 c-23 -31 -23 -54 2 -80 11 -11 24 -39 29 -60 8 -34 9 -36
10 -12 1 15 8 38 16 51 14 21 14 28 -3 72 -11 26 -23 49 -28 51 -5 1 -17 -8
-26 -22z"/>
<path d="M280 201 c0 -6 6 -11 13 -12 49 -4 63 -3 67 6 3 6 -13 11 -37 13 -26
2 -43 -1 -43 -7z"/>
</g>
</svg>
